<?xml version="1.0" standalone="no"?>
<!DOCTYPE svg PUBLIC "-//W3C//DTD SVG 20010904//EN"
 "http://www.w3.org/TR/2001/REC-SVG-20010904/DTD/svg10.dtd">
<svg version="1.0" xmlns="http://www.w3.org/2000/svg"
 width="2000.000000pt" height="2000.000000pt" viewBox="0 0 2000.000000 2000.000000"
 preserveAspectRatio="xMidYMid meet">
<metadata>
Created by potrace 1.11, written by Peter Selinger 2001-2013
</metadata>
<g transform="translate(0.000000,2000.000000) scale(0.100000,-0.100000)"
fill="#000000" stroke="none">
<path d="M15390 17052 c-153 -7 -267 -46 -353 -122 -94 -83 -143 -171 -335
-590 -24 -53 -61 -133 -187 -405 -126 -272 -153 -329 -224 -479 -34 -70 -61
-130 -61 -132 0 -1 -36 -78 -80 -169 -44 -91 -80 -168 -80 -170 0 -2 -33 -72
-74 -157 -40 -84 -87 -182 -103 -218 -17 -36 -56 -119 -88 -185 -31 -66 -78
-163 -102 -215 -25 -52 -77 -160 -116 -240 -38 -80 -89 -185 -112 -235 -23
-49 -81 -169 -127 -265 -47 -96 -117 -240 -156 -320 -38 -80 -135 -279 -215
-442 -159 -323 -192 -404 -212 -518 -13 -72 -13 -182 0 -245 16 -80 62 -180
157 -347 91 -159 241 -456 389 -765 24 -51 46 -93 49 -93 3 0 46 73 97 163 89
158 194 364 508 1002 84 171 235 477 335 680 361 731 641 1303 835 1700 51
105 139 285 195 400 56 116 131 269 165 340 239 498 274 562 346 634 42 43
146 111 169 111 9 0 20 3 24 7 7 8 18 10 92 21 50 8 73 8 314 -2 127 -6 620
-7 1053 -2 130 1 237 -1 237 -5 0 -7 -72 -159 -245 -514 -48 -99 -118 -243
-155 -320 -37 -77 -101 -210 -142 -295 -42 -85 -114 -234 -160 -330 -144 -294
-248 -509 -313 -645 -34 -71 -102 -211 -150 -310 -168 -346 -258 -531 -325
-670 -140 -290 -338 -698 -470 -970 -51 -104 -116 -239 -145 -300 -29 -60 -98
-202 -153 -315 -54 -113 -124 -257 -155 -320 -30 -63 -101 -209 -157 -325 -56
-115 -131 -271 -167 -345 -36 -74 -104 -214 -151 -310 -46 -96 -115 -238 -152
-315 -37 -77 -103 -214 -147 -305 -44 -91 -118 -241 -163 -335 -45 -93 -114
-235 -152 -315 -194 -401 -333 -687 -515 -1062 -48 -98 -89 -178 -93 -178 -3
0 -23 37 -44 83 -22 45 -86 179 -144 297 -57 118 -137 283 -177 365 -40 83
-109 224 -153 315 -210 434 -248 513 -297 615 -29 61 -97 200 -150 310 -54
110 -130 268 -170 350 -40 83 -112 231 -160 330 -48 99 -121 250 -162 335 -42
85 -114 234 -160 330 -47 96 -113 234 -148 305 -34 72 -104 216 -155 320 -211
433 -275 565 -320 660 -26 55 -96 199 -155 320 -59 121 -139 285 -177 365
-181 373 -236 486 -303 625 -40 83 -109 227 -155 320 -136 280 -239 492 -305
630 -34 72 -106 220 -160 330 -54 110 -130 268 -170 350 -139 288 -213 442
-329 679 -64 131 -116 241 -116 245 0 9 177 13 575 14 304 1 483 -7 550 -24
60 -16 129 -64 194 -136 80 -88 94 -114 396 -688 54 -103 176 -341 450 -880
87 -170 161 -313 164 -318 4 -4 29 34 56 85 26 51 69 134 95 183 55 105 150
287 245 470 37 72 91 175 120 230 29 55 85 163 125 240 40 77 94 181 120 230
26 50 82 158 125 240 43 83 97 187 121 233 47 88 123 233 236 452 39 74 94
180 123 235 29 55 82 156 117 225 36 69 102 195 147 281 l81 156 -2975 0
c-1636 0 -2973 -3 -2971 -6 5 -9 94 -196 126 -266 15 -33 49 -105 75 -160 26
-55 62 -131 80 -170 92 -198 213 -451 375 -790 85 -178 152 -318 195 -410 55
-116 127 -268 200 -420 114 -237 185 -387 299 -627 24 -51 68 -145 98 -208
124 -258 163 -340 208 -435 26 -55 82 -171 124 -258 42 -87 76 -160 76 -162 0
-1 41 -87 91 -191 97 -200 165 -344 231 -484 22 -47 66 -139 98 -205 155 -323
202 -421 340 -710 26 -55 76 -158 110 -230 34 -71 88 -184 120 -250 96 -201
174 -362 260 -540 77 -160 108 -223 257 -535 33 -69 93 -192 133 -275 131
-271 151 -340 146 -495 -4 -130 -23 -192 -112 -361 -67 -128 -299 -595 -352
-709 -16 -36 -51 -110 -77 -165 -26 -55 -87 -185 -135 -290 -136 -293 -189
-405 -194 -405 -3 0 -26 44 -52 98 -44 91 -110 227 -299 617 -43 88 -120 248
-172 355 -53 107 -124 254 -158 325 -66 137 -205 423 -323 665 -102 210 -263
542 -347 715 -40 83 -112 231 -160 330 -143 293 -264 544 -311 643 -24 50 -47
92 -50 92 -5 0 -138 -270 -229 -465 -18 -38 -74 -155 -125 -259 -50 -104 -118
-244 -149 -310 -32 -67 -85 -177 -119 -246 -33 -69 -87 -181 -120 -250 -89
-186 -187 -390 -254 -530 -61 -126 -133 -275 -248 -515 -34 -71 -93 -193 -130
-270 -149 -308 -224 -463 -255 -530 -18 -38 -77 -160 -130 -270 l-97 -200 -71
146 c-40 80 -109 222 -154 315 -181 374 -258 534 -310 644 -30 63 -94 194
-140 290 -47 96 -109 225 -138 285 -29 61 -94 196 -145 300 -51 105 -114 235
-140 290 -26 55 -89 186 -140 290 -51 105 -119 245 -151 313 -130 270 -181
375 -269 557 -51 105 -114 235 -140 290 -26 55 -89 186 -140 290 -51 105 -118
244 -150 310 -32 66 -93 192 -135 280 -43 88 -108 223 -145 300 -159 330 -212
439 -285 590 -43 88 -101 210 -130 270 -29 61 -90 187 -135 280 -45 94 -111
229 -145 300 -34 72 -95 198 -135 280 -113 234 -207 428 -275 570 -34 72 -101
209 -147 305 -47 96 -108 222 -136 280 -27 58 -98 204 -157 325 -59 121 -120
249 -136 284 -17 35 -40 84 -54 110 l-23 47 321 3 c826 8 1451 3 1742 -15 96
-5 156 -22 220 -62 51 -32 172 -155 216 -218 30 -44 191 -362 359 -709 37 -77
109 -225 160 -330 51 -104 116 -239 145 -300 29 -60 87 -182 130 -270 73 -151
115 -238 233 -485 27 -58 80 -168 117 -245 63 -131 93 -193 215 -450 26 -55
76 -158 110 -230 34 -71 79 -166 100 -210 217 -460 341 -713 424 -870 102
-191 121 -225 126 -225 3 0 25 37 48 83 23 45 76 147 118 227 151 288 315 618
376 755 52 118 62 150 66 212 9 144 -19 250 -128 478 -34 72 -80 168 -102 215
-23 47 -53 112 -68 145 -15 33 -50 107 -78 165 -27 58 -63 134 -80 170 -16 36
-58 124 -92 195 -35 72 -75 157 -90 190 -15 33 -59 125 -98 205 -38 80 -85
179 -105 220 -19 41 -65 138 -102 215 -37 77 -87 181 -110 230 -40 84 -81 169
-255 530 -199 412 -445 922 -590 1220 -72 147 -104 199 -170 269 -53 57 -111
99 -161 115 -26 8 -255 13 -795 17 -811 7 -4144 11 -4144 6 0 -5 107 -234 158
-337 27 -55 68 -140 92 -190 42 -88 108 -225 238 -495 35 -74 86 -180 112
-235 26 -55 83 -172 125 -260 101 -209 197 -408 250 -520 41 -86 102 -213 239
-497 35 -73 94 -196 131 -273 37 -77 89 -185 115 -240 26 -55 81 -170 122
-255 42 -85 102 -209 133 -275 57 -118 122 -254 245 -510 34 -71 87 -182 118
-245 30 -63 86 -180 125 -260 38 -80 91 -190 117 -245 26 -55 85 -176 130
-270 45 -93 104 -215 130 -270 26 -55 77 -162 114 -237 102 -213 188 -392 246
-513 29 -60 82 -171 118 -245 74 -154 179 -372 259 -540 31 -63 82 -171 116
-240 92 -192 205 -429 355 -740 27 -58 85 -177 127 -265 43 -88 101 -209 130
-270 29 -60 80 -166 113 -235 33 -69 89 -186 125 -260 35 -74 97 -202 137
-285 131 -271 179 -372 239 -497 32 -68 91 -190 131 -273 40 -82 94 -195 120
-250 26 -55 80 -167 120 -250 40 -82 94 -195 120 -250 26 -55 82 -172 125
-260 42 -88 123 -257 180 -375 57 -118 144 -300 195 -405 51 -104 109 -226
130 -270 21 -44 69 -145 108 -225 38 -80 89 -187 113 -237 24 -51 46 -93 49
-93 6 0 133 256 285 575 35 72 106 220 160 330 54 110 126 259 160 330 34 72
95 198 136 280 40 83 73 152 74 155 1 3 33 70 72 150 133 274 245 505 308 635
34 72 111 229 170 350 59 121 124 256 145 300 21 44 92 193 159 330 67 138
139 286 159 329 l38 79 26 -54 c15 -30 73 -151 131 -269 102 -210 170 -352
307 -635 37 -77 102 -212 145 -300 43 -88 108 -223 145 -300 37 -77 105 -216
150 -310 132 -273 229 -472 285 -590 29 -60 91 -189 138 -285 46 -96 114 -236
150 -310 36 -74 112 -232 169 -350 58 -118 129 -265 158 -327 29 -62 57 -110
61 -107 5 3 24 37 43 77 19 40 68 142 109 227 41 85 105 218 142 295 37 77
108 223 157 325 84 172 133 274 293 605 126 261 195 404 280 580 48 99 118
243 155 320 99 207 202 418 298 615 46 96 99 207 117 245 l33 70 90 -185 c49
-102 119 -246 155 -320 183 -379 255 -526 312 -645 34 -71 106 -220 160 -330
54 -110 126 -258 160 -330 34 -71 109 -224 165 -340 56 -115 128 -264 160
-330 32 -66 112 -230 177 -365 65 -135 150 -309 188 -387 38 -78 72 -140 76
-137 4 2 19 28 33 58 14 29 60 124 102 212 42 87 96 200 119 249 23 50 73 153
110 230 37 77 96 199 130 270 139 290 191 397 257 535 39 80 94 195 123 255
29 61 85 178 125 260 40 83 92 191 115 241 24 49 80 166 125 260 46 93 102
210 125 259 23 50 80 167 125 260 94 195 163 338 165 345 1 3 33 70 72 150 89
182 214 443 373 775 26 55 80 168 120 250 40 83 98 204 130 270 32 66 90 188
130 270 40 83 94 195 120 250 26 55 79 165 118 245 145 302 205 427 242 505
21 44 77 161 125 260 48 99 107 221 130 270 24 50 80 167 125 260 45 94 102
211 125 260 45 94 133 277 255 530 40 83 94 195 120 250 55 117 137 286 245
510 43 88 101 210 130 270 77 162 168 352 245 510 37 77 90 187 118 245 69
146 171 357 259 540 42 85 92 191 113 235 21 44 77 161 125 260 48 99 102 212
120 250 18 39 78 164 134 278 56 115 101 210 101 211 0 2 51 109 114 238 63
129 130 268 149 309 19 41 72 151 117 244 45 94 101 211 125 260 23 50 61 127
83 173 34 68 38 82 24 83 -32 1 -2473 0 -3077 -2 -506 -2 -1121 6 -1144 14 -3
1 -31 1 -61 -1z"/>
<path d="M9398 4100 l-23 -6 0 -602 c0 -502 2 -602 14 -604 7 -2 57 -2 111 0
l97 3 0 605 c0 544 -2 604 -16 605 -67 4 -164 3 -183 -1z"/>
<path d="M10859 4070 c0 -19 -1 -292 -2 -607 l-2 -572 103 -3 c56 -2 107 -1
112 0 6 2 10 224 10 610 l0 607 -110 0 -110 0 -1 -35z"/>
<path d="M11155 4100 c-1 -3 -3 -276 -3 -607 l0 -603 21 0 c33 -1 599 -1 622
-1 19 1 21 7 20 111 l0 110 -217 0 c-120 0 -219 3 -219 8 -1 4 -2 64 -3 134
l-1 126 162 -1 163 -2 1 30 c1 17 2 66 3 110 l1 80 -165 5 -165 5 0 138 c-1
89 3 137 9 138 6 0 105 1 221 2 l210 2 0 103 c0 57 -2 106 -5 110 -6 8 -650
10 -655 2z"/>
<path d="M6661 4018 c17 -46 46 -123 64 -173 18 -49 69 -187 113 -305 44 -118
113 -303 152 -410 40 -107 77 -206 82 -219 10 -26 -11 -63 228 404 68 132 130
254 138 272 l15 31 72 -141 c40 -78 123 -242 186 -364 l114 -223 16 38 c9 20
52 134 97 252 45 118 109 287 143 375 33 88 67 176 74 195 12 30 14 -28 14
-412 1 -419 2 -448 19 -449 78 -3 193 -1 198 3 6 6 8 1197 2 1203 -3 3 -126
-163 -189 -256 l-27 -38 -63 150 c-46 110 -65 146 -70 132 -4 -10 -44 -115
-88 -233 -45 -118 -85 -224 -90 -235 -5 -11 -21 -53 -36 -92 -15 -40 -30 -73
-34 -73 -4 0 -14 15 -22 33 -47 100 -310 607 -315 608 -4 0 -73 -129 -154
-288 -81 -158 -156 -305 -167 -327 l-20 -39 -82 224 c-46 123 -89 238 -96 254
-7 17 -25 65 -40 108 l-28 77 -118 0 -118 0 30 -82z"/>
<path d="M8471 4090 c-8 -6 -9 -1200 -1 -1201 7 -1 181 -1 201 0 15 1 17 18
17 139 1 209 1 207 23 235 l20 27 82 -108 c45 -59 114 -149 152 -200 l70 -91
50 -2 c96 -2 227 -1 230 3 2 2 -303 403 -353 463 -28 33 -92 125 -92 131 0 3
21 36 48 73 46 64 76 107 97 139 6 9 16 23 22 31 38 49 251 357 248 359 -2 2
-63 4 -135 4 -104 1 -134 -2 -141 -13 -4 -8 -41 -60 -81 -116 -40 -56 -109
-154 -153 -217 -44 -63 -82 -113 -84 -111 -2 3 -3 106 -3 230 1 225 1 225 -21
226 -108 3 -190 3 -196 -1z"/>
<path d="M9728 4090 l-56 -5 36 -75 c19 -41 69 -145 110 -230 80 -167 159
-332 227 -475 137 -290 196 -405 205 -405 6 0 15 12 20 26 14 35 46 104 135
289 192 398 215 447 215 450 0 1 45 96 100 210 56 114 99 210 96 212 -2 3 -57
5 -122 5 -91 0 -119 -3 -123 -13 -2 -8 -36 -79 -74 -159 -38 -80 -86 -181
-107 -225 -20 -44 -61 -129 -90 -189 l-53 -110 -30 65 c-17 35 -83 172 -147
304 -64 132 -125 259 -135 283 -13 29 -25 42 -39 43 -12 0 -41 1 -66 2 -25 1
-70 0 -102 -3z"/>
<path d="M11906 4063 c9 -21 20 -51 26 -68 9 -27 201 -548 215 -585 4 -8 7
-17 8 -20 1 -3 5 -12 8 -20 3 -8 29 -78 57 -155 28 -77 55 -149 60 -160 4 -11
20 -53 35 -93 15 -40 28 -72 30 -70 3 4 321 626 348 682 10 21 22 34 26 30 7
-7 276 -532 351 -683 15 -29 18 -31 24 -15 4 11 28 73 52 139 24 66 51 136 59
155 8 19 69 181 135 360 67 179 139 371 161 428 21 57 39 105 39 107 0 3 -53
5 -118 5 l-117 0 -19 -52 c-10 -29 -23 -64 -29 -78 -5 -14 -11 -29 -13 -35 -6
-21 -166 -441 -178 -468 -14 -31 11 -76 -243 426 -58 114 -107 207 -108 207
-2 0 -48 -89 -103 -197 -246 -486 -235 -467 -245 -441 -5 13 -20 52 -33 88
-14 36 -40 106 -58 155 -19 50 -59 159 -91 243 l-57 152 -119 0 -119 0 16 -37z"/>
</g>
</svg>
